<svg width="86" height="80" viewBox="0 0 86 80" fill="none" xmlns="http://www.w3.org/2000/svg">
<path d="M76.253 0C78.768 0 81.1799 0.936505 82.9583 2.60349C84.7367 4.27049 85.7357 6.53141 85.7357 8.88889V71.1111C85.7357 73.4686 84.7367 75.7295 82.9583 77.3965C81.1799 79.0635 78.768 80 76.253 80H9.87363C7.35865 80 4.94667 79.0635 3.16831 77.3965C1.38994 75.7295 0.390869 73.4686 0.390869 71.1111V8.88889C0.390869 6.53141 1.38994 4.27049 3.16831 2.60349C4.94667 0.936505 7.35865 0 9.87363 0H76.253ZM73.8823 68.8889V45.3333C73.8823 41.4906 72.2538 37.8053 69.3551 35.0881C66.4563 32.3709 62.5248 30.8444 58.4254 30.8444C54.3952 30.8444 49.7012 33.1556 47.4254 36.6222V31.6889H34.1969V68.8889H47.4254V46.9778C47.4254 43.5556 50.365 40.7556 54.0159 40.7556C55.7764 40.7556 57.4648 41.4111 58.7096 42.578C59.9545 43.7449 60.6538 45.3275 60.6538 46.9778V68.8889H73.8823ZM18.7874 24.7111C20.9 24.7111 22.9261 23.9244 24.4199 22.5242C25.9137 21.1239 26.753 19.2247 26.753 17.2444C26.753 13.1111 23.1969 9.73333 18.7874 9.73333C16.6623 9.73333 14.6241 10.5247 13.1214 11.9333C11.6187 13.3419 10.7745 15.2524 10.7745 17.2444C10.7745 21.3778 14.3779 24.7111 18.7874 24.7111ZM25.378 68.8889V31.6889H12.2443V68.8889H25.378Z" fill="#E0F1F4"/>
</svg>
