<svg width="81" height="80" viewBox="0 0 81 80" fill="none" xmlns="http://www.w3.org/2000/svg">
<path d="M23.9357 0H57.5358C70.3358 0 80.7357 10.4 80.7357 23.2V56.8C80.7357 62.953 78.2915 68.854 73.9406 73.2049C69.5898 77.5557 63.6888 80 57.5358 80H23.9357C11.1357 80 0.735748 69.6 0.735748 56.8V23.2C0.735748 17.047 3.18003 11.146 7.53087 6.79512C11.8817 2.44428 17.7827 0 23.9357 0ZM23.1357 8C19.3166 8 15.6539 9.51714 12.9534 12.2177C10.2529 14.9182 8.73575 18.5809 8.73575 22.4V57.6C8.73575 65.56 15.1757 72 23.1357 72H58.3357C62.1549 72 65.8176 70.4829 68.5181 67.7823C71.2186 65.0818 72.7357 61.4191 72.7357 57.6V22.4C72.7357 14.44 66.2957 8 58.3357 8H23.1357ZM61.7357 14C63.0618 14 64.3336 14.5268 65.2713 15.4645C66.209 16.4021 66.7357 17.6739 66.7357 19C66.7357 20.3261 66.209 21.5979 65.2713 22.5355C64.3336 23.4732 63.0618 24 61.7357 24C60.4097 24 59.1379 23.4732 58.2002 22.5355C57.2625 21.5979 56.7357 20.3261 56.7357 19C56.7357 17.6739 57.2625 16.4021 58.2002 15.4645C59.1379 14.5268 60.4097 14 61.7357 14ZM40.7357 20C46.0401 20 51.1272 22.1071 54.8779 25.8579C58.6286 29.6086 60.7357 34.6957 60.7357 40C60.7357 45.3043 58.6286 50.3914 54.8779 54.1421C51.1272 57.8929 46.0401 60 40.7357 60C35.4314 60 30.3443 57.8929 26.5936 54.1421C22.8429 50.3914 20.7357 45.3043 20.7357 40C20.7357 34.6957 22.8429 29.6086 26.5936 25.8579C30.3443 22.1071 35.4314 20 40.7357 20ZM40.7357 28C37.5532 28 34.5009 29.2643 32.2505 31.5147C30 33.7652 28.7357 36.8174 28.7357 40C28.7357 43.1826 30 46.2348 32.2505 48.4853C34.5009 50.7357 37.5532 52 40.7357 52C43.9183 52 46.9706 50.7357 49.221 48.4853C51.4715 46.2348 52.7357 43.1826 52.7357 40C52.7357 36.8174 51.4715 33.7652 49.221 31.5147C46.9706 29.2643 43.9183 28 40.7357 28Z" fill="#E0F1F4"/>
</svg>
