<svg width="81" height="80" viewBox="0 0 81 80" fill="none" xmlns="http://www.w3.org/2000/svg">
<path d="M40.3909 0C18.2909 0 0.390875 18.3532 0.390875 41.0128C0.386338 49.6225 3.02613 58.015 7.93574 64.9998C12.8453 71.9845 19.7755 77.2068 27.7429 79.9257C29.7429 80.2825 30.4909 79.0521 30.4909 77.9734C30.4909 77.0014 30.4389 73.7737 30.4389 70.3369C20.3909 72.2358 17.7909 67.8269 16.9909 65.5179C16.5389 64.3367 14.5909 60.6989 12.8909 59.7228C11.4909 58.9558 9.49087 57.0569 12.8389 57.0077C15.9909 56.9544 18.2389 59.9812 18.9909 61.2115C22.5909 67.4127 28.3429 65.6696 30.6389 64.5951C30.9909 61.9293 32.0389 60.137 33.1909 59.1117C24.2909 58.0864 14.9909 54.547 14.9909 38.8596C14.9909 34.3974 16.5389 30.7103 19.0909 27.8354C18.6909 26.81 17.2909 22.6062 19.4909 16.967C19.4909 16.967 22.8389 15.8924 30.4909 21.1749C33.7471 20.2482 37.1115 19.7819 40.4909 19.7887C43.8909 19.7887 47.2909 20.248 50.4909 21.1708C58.1389 15.8391 61.4909 16.9711 61.4909 16.9711C63.6909 22.6103 62.2909 26.8141 61.8909 27.8395C64.4389 30.7104 65.9909 34.3482 65.9909 38.8596C65.9909 54.6003 56.6429 58.0864 47.7429 59.1117C49.1909 60.3913 50.4429 62.852 50.4429 66.699C50.4429 72.1824 50.3909 76.5913 50.3909 77.9776C50.3909 79.0521 51.1429 80.3317 53.1429 79.9216C61.083 77.1729 67.9825 71.9404 72.8705 64.9607C77.7584 57.981 80.3886 49.6054 80.3909 41.0128C80.3909 18.3532 62.4909 0 40.3909 0Z" fill="#E0F1F4"/>
</svg>
